<?xml version="1.0" encoding="UTF-8"?>
<svg version="1.1" xmlns="http://www.w3.org/2000/svg" width="1080" height="1080">
<path d="M0 0 C0.85207031 0.71800781 1.70414063 1.43601562 2.58203125 2.17578125 C22.06094158 19.02159771 34.76016876 41.52216913 42.30932617 65.82885742 C43.0223157 68.07014971 43.79356825 70.28653191 44.56640625 72.5078125 C55.57657068 105.53474723 48.03476615 142.85025278 33.75 173.5625 C27.41016147 185.33860195 18.92476643 196.08842468 10 206 C13.66671185 211.01600714 17.46956457 215.76130176 21.6796875 220.3359375 C23 222 23 222 23 224 C23.61875 224.268125 24.2375 224.53625 24.875 224.8125 C27 226 27 226 29 229 C31.13006166 229.35907078 31.13006166 229.35907078 33.5625 229.3125 C40.6800632 229.8655193 45.31937483 232.99335285 50.0234375 238.26953125 C51.36461251 239.95262637 52.68307193 241.65402617 53.98046875 243.37109375 C55.98185383 245.97637839 58.09475568 248.38991962 60.3125 250.8125 C63.78133774 254.61510907 67.13218624 258.49367943 70.4375 262.4375 C73.91514128 266.58412821 77.4595082 270.64126395 81.125 274.625 C84.33662257 278.11940695 87.40243296 281.67533022 90.375 285.375 C94.24154184 290.1706049 98.34851983 294.66878667 102.5559082 299.16137695 C106.47594854 303.37091255 110.1155048 307.75507145 113.7109375 312.24609375 C116.26290282 315.31629094 118.95594505 318.21579042 121.6875 321.125 C128.75920376 328.70644203 134.39384045 335.18207282 134.21484375 345.921875 C133.85926606 349.361281 132.60288048 351.96005426 131 355 C130.68289063 355.61101562 130.36578125 356.22203125 130.0390625 356.8515625 C126.69392369 362.42679385 122.15673369 364.37113187 116 366 C110.27941899 366.70252749 105.11012934 365.62148749 100 363 C94.28563811 358.52502946 89.93354584 352.54885919 85.41796875 346.921875 C82.87403206 343.84778026 80.21895741 340.91812423 77.5 338 C73.9321291 334.17041495 70.53318599 330.26914789 67.25 326.1875 C64.24055833 322.44979487 61.1289834 319.01370149 57.6875 315.67578125 C53.52827952 311.54544424 49.71748871 307.1277728 46.375 302.3125 C43.78930157 298.59345972 40.68802264 295.60507313 37.41015625 292.48828125 C33.22441136 288.41643418 29.6321903 284.07546842 26.04296875 279.47265625 C24.1080019 277.1307174 22.08298507 275.0818145 19.875 273 C13.37037772 266.63650365 9.45635567 260.12711338 9 251 C8.30997127 245.7140055 8.30997127 245.7140055 6 241 C5.06655762 240.55164795 5.06655762 240.55164795 4.11425781 240.09423828 C1.80974582 238.90153358 0.64012464 237.72188815 -1.015625 235.7421875 C-1.54414062 235.11699219 -2.07265625 234.49179687 -2.6171875 233.84765625 C-3.15601563 233.19667969 -3.69484375 232.54570313 -4.25 231.875 C-4.80429687 231.21628906 -5.35859375 230.55757812 -5.9296875 229.87890625 C-7.2924831 228.25764942 -8.64705703 226.62948792 -10 225 C-10.5767749 225.32178223 -11.1535498 225.64356445 -11.74780273 225.97509766 C-13.27918104 226.82797596 -14.81282148 227.67679521 -16.34765625 228.5234375 C-18.01078945 229.44930547 -19.6659204 230.38986203 -21.30859375 231.3515625 C-35.15794031 239.28446821 -50.32878958 245.82364044 -66 249 C-67.61841797 249.33451172 -67.61841797 249.33451172 -69.26953125 249.67578125 C-88.41681572 252.89252504 -109.0720006 252.23430298 -128 248 C-128.69432129 247.8448291 -129.38864258 247.6896582 -130.10400391 247.52978516 C-137.75102161 245.7617615 -144.96978399 243.5090579 -152 240 C-153.04800781 239.52304687 -154.09601563 239.04609375 -155.17578125 238.5546875 C-156.27277344 238.04164063 -157.36976563 237.52859375 -158.5 237 C-160.03140625 236.2884375 -160.03140625 236.2884375 -161.59375 235.5625 C-164 234 -164 234 -164.74707031 232.19799805 C-165.0647465 229.43734289 -164.47479679 227.8470237 -163.453125 225.26953125 C-163.1025 224.38458984 -162.751875 223.49964844 -162.390625 222.58789062 C-161.82601562 221.21407227 -161.82601562 221.21407227 -161.25 219.8125 C-160.8890625 218.88501953 -160.528125 217.95753906 -160.15625 217.00195312 C-159.80046875 216.12087891 -159.4446875 215.23980469 -159.078125 214.33203125 C-158.75231445 213.52483643 -158.42650391 212.7176416 -158.09082031 211.88598633 C-157 210 -157 210 -154 209 C-152.23266602 209.52563477 -152.23266602 209.52563477 -150.25390625 210.44140625 C-149.50850586 210.77519287 -148.76310547 211.10897949 -147.99511719 211.45288086 C-147.19235352 211.81905518 -146.38958984 212.18522949 -145.5625 212.5625 C-138.56923064 215.63339267 -131.57243258 218.26070873 -124.25 220.4375 C-123.01938843 220.80693726 -123.01938843 220.80693726 -121.76391602 221.18383789 C-92.41868536 229.68160811 -59.36645277 221.73047678 -33.13818359 207.30810547 C-27.78069413 204.03048175 -23.16632151 199.84826273 -18.63916016 195.5246582 C-16.82501479 193.83723821 -14.93805394 192.2559336 -13.04296875 190.66015625 C7.53945863 172.70302596 18.54055399 145.7735822 21 119 C22.69254762 92.36077219 17.86496842 61.28704405 0.4375 40 C-1.04108633 38.33281847 -2.52021033 36.66611355 -4 35 C-5.11328572 33.48582928 -6.21786426 31.96520765 -7.3125 30.4375 C-11.72919734 24.70911529 -17.36950496 20.45685623 -23 16 C-23.72960937 15.3709375 -24.45921875 14.741875 -25.2109375 14.09375 C-36.87720174 4.26011731 -51.59658954 -0.68426575 -66 -5 C-67.63388672 -5.495 -67.63388672 -5.495 -69.30078125 -6 C-77.87456009 -8.46659198 -86.05599159 -9.16558572 -94.9375 -9.125 C-95.77990234 -9.12886719 -96.62230469 -9.13273437 -97.49023438 -9.13671875 C-106.74487039 -9.12246989 -115.1118781 -7.9671953 -124 -5.375 C-124.9077417 -5.11211182 -125.8154834 -4.84922363 -126.75073242 -4.57836914 C-138.47935232 -1.08244668 -149.80356004 3.13300982 -160 10 C-160.66 10 -161.32 10 -162 10 C-162 10.66 -162 11.32 -162 12 C-163.56064248 13.20444168 -165.17681387 14.33712933 -166.8125 15.4375 C-181.34833286 25.76952516 -191.792475 39.36150497 -200 55 C-200.47832275 55.89960449 -200.47832275 55.89960449 -200.96630859 56.81738281 C-214.94327125 83.48046499 -215.77614993 116.38036317 -207.125 144.8828125 C-206.2151278 147.34434174 -205.1577639 149.6445493 -204 152 C-203.42801663 153.23029736 -202.85643951 154.46078364 -202.28515625 155.69140625 C-198.45913609 163.76618979 -194.14351226 171.10611906 -188.8828125 178.328125 C-187.34056299 180.51671143 -186.09945854 182.56961796 -185 185 C-189.79908223 188.34158318 -194.68921903 191.50540573 -199.75 194.4375 C-201.07257813 195.20900391 -201.07257813 195.20900391 -202.421875 195.99609375 C-205.5001205 197.19474389 -206.91505207 197.12086442 -210 196 C-227.73836564 180.64230975 -237.30538442 146.1195294 -239 124 C-239.19354901 118.7080319 -239.24565873 113.41980286 -239.25 108.125 C-239.25067474 107.38734406 -239.25134949 106.64968811 -239.25204468 105.88967896 C-239.23573263 94.66562046 -238.74741862 83.92293556 -236 73 C-235.83902832 72.3493457 -235.67805664 71.69869141 -235.51220703 71.02832031 C-231.70080765 56.11223858 -224.81882949 42.17622147 -216.75 29.125 C-216.35014893 28.47724609 -215.95029785 27.82949219 -215.53833008 27.16210938 C-213.05726416 23.28611822 -210.31696369 20.21879809 -207 17 C-205.79663614 15.52061704 -204.59384237 14.04063512 -203.40991211 12.5456543 C-198.76211927 6.72862761 -193.76644621 1.82559376 -187.9375 -2.8125 C-186.95450928 -3.59475952 -186.95450928 -3.59475952 -185.95166016 -4.39282227 C-181.28527552 -8 -181.28527552 -8 -179 -8 C-179 -8.66 -179 -9.32 -179 -10 C-175.87443341 -12.30924214 -172.38637689 -14.10246123 -169 -16 C-168.42701172 -16.32339355 -167.85402344 -16.64678711 -167.26367188 -16.97998047 C-158.74857315 -21.75881554 -150.23611392 -25.75991165 -141 -29 C-140.2471875 -29.28488281 -139.494375 -29.56976563 -138.71875 -29.86328125 C-91.3610901 -47.09228065 -36.95764148 -31.97713237 0 0 Z " fill="#030303" transform="translate(593,375)"/>
<path d="M0 0 C4.63235294 2.26470588 4.63235294 2.26470588 6 5 C6.07092842 7.2072923 6.08415025 9.41667452 6.0625 11.625 C6.05347656 12.81351562 6.04445313 14.00203125 6.03515625 15.2265625 C6.02355469 16.14179688 6.01195312 17.05703125 6 18 C6.98871094 17.95875 7.97742188 17.9175 8.99609375 17.875 C13.19903286 17.88344176 17.05241893 18.80652349 21.0625 20 C21.79694336 20.21712646 22.53138672 20.43425293 23.28808594 20.65795898 C34.34750685 24.14356197 45.08667848 30.13010532 52.625 39.0625 C54.26954731 41.00098224 55.86510971 42.87219299 57.7109375 44.62109375 C59 46 59 46 59 48 C59.99 48.33 60.98 48.66 62 49 C63.63838215 51.45908187 65.05855893 53.83684292 66.4375 56.4375 C66.83638428 57.18652588 67.23526855 57.93555176 67.64624023 58.70727539 C71.76687624 66.86483244 75 76.75562947 75 86 C75.80824219 85.94199219 76.61648438 85.88398438 77.44921875 85.82421875 C86.14453165 85.45710663 86.14453165 85.45710663 90.25 88.0625 C92.43736375 91.73414629 92.61233721 93.7901817 92 98 C90.68093021 100.5062326 89.92316404 101.69025417 87.21875 102.59765625 C84.68434727 103.05723984 82.32442241 103.09637398 79.75 103.0625 C78.41195312 103.04896484 78.41195312 103.04896484 77.046875 103.03515625 C76.37140625 103.02355469 75.6959375 103.01195312 75 103 C74.87044922 104.18142578 74.87044922 104.18142578 74.73828125 105.38671875 C73.15946216 117.62618785 69.13292323 129.78783669 62 140 C61.01 140.33 60.02 140.66 59 141 C58.31379969 142.32338632 57.65213539 143.65949948 57 145 C55.43955895 147.14167916 53.79050671 149.03044262 52 151 C51.34 151 50.68 151 50 151 C49.773125 151.58910156 49.54625 152.17820312 49.3125 152.78515625 C46.65542901 157.26896354 41.40368986 159.44078757 37 162 C36.20078125 162.46921875 35.4015625 162.9384375 34.578125 163.421875 C26.029123 168.06931904 15.78432393 171.40517906 6 171 C6.05220703 172.33804688 6.05220703 172.33804688 6.10546875 173.703125 C6.13253906 174.87359375 6.15960938 176.0440625 6.1875 177.25 C6.23970703 178.99023438 6.23970703 178.99023438 6.29296875 180.765625 C5.97526624 184.27306069 5.53624319 185.6011605 3 188 C-1.49482645 189.08745801 -3.71450929 189.57436819 -7.9375 187.6875 C-10 186 -10 186 -11 184 C-11.07092842 181.7927077 -11.08415025 179.58332548 -11.0625 177.375 C-11.05347656 176.18648437 -11.04445313 174.99796875 -11.03515625 173.7734375 C-11.02355469 172.85820313 -11.01195312 171.94296875 -11 171 C-11.63164062 170.98582031 -12.26328125 170.97164062 -12.9140625 170.95703125 C-21.23626441 170.51334037 -28.32300932 168.14586812 -36 165 C-36.91136719 164.62875 -37.82273437 164.2575 -38.76171875 163.875 C-44.64022904 161.21721199 -49.02752399 157.61785217 -53.6875 153.18359375 C-55.6230432 151.355944 -57.5829434 149.74569649 -59.6875 148.125 C-70.21310371 139.15966225 -78.3678705 120.92263637 -79.75 107.3125 C-79.84830229 105.87594601 -79.93758958 104.43856026 -80 103 C-80.97839844 103.05220703 -80.97839844 103.05220703 -81.9765625 103.10546875 C-87.4065808 103.27365516 -91.38410481 103.23112663 -96 100 C-97.98789991 97.49351751 -98.0045232 96.21711338 -97.9375 93 C-97 90 -97 90 -95.1875 87.625 C-90.27494623 85.12056082 -85.41126076 85.6893056 -80 86 C-79.97421875 85.40574219 -79.9484375 84.81148438 -79.921875 84.19921875 C-78.85847284 68.65904625 -70.60975104 50.99109754 -59.1796875 40.296875 C-58.00376495 39.28894138 -56.81278098 38.29823902 -55.60546875 37.328125 C-53.79847087 35.89314072 -53.79847087 35.89314072 -51.6875 33.5 C-42.05631506 24.54075819 -27.20275448 17.95459153 -13.9375 17.875 C-12.968125 17.91625 -11.99875 17.9575 -11 18 C-11.05800781 17.11957031 -11.11601562 16.23914063 -11.17578125 15.33203125 C-11.54418419 5.84828711 -11.54418419 5.84828711 -8.875 1.6875 C-5.47884978 -0.30589252 -3.8725003 -0.64541672 0 0 Z M-47.07421875 51.80078125 C-50.62562965 55.85644927 -53.36451409 60.31240397 -56 65 C-56.4125 65.72574219 -56.825 66.45148438 -57.25 67.19921875 C-60.47025186 73.22535182 -62.14274591 79.11250962 -62 86 C-60.86111328 86.09087891 -60.86111328 86.09087891 -59.69921875 86.18359375 C-58.70535156 86.26738281 -57.71148437 86.35117187 -56.6875 86.4375 C-55.70136719 86.51871094 -54.71523438 86.59992188 -53.69921875 86.68359375 C-48.57234111 87.28457362 -48.57234111 87.28457362 -46.75 89.5625 C-45.6186194 93.23948695 -46.37034448 96.2220669 -47 100 C-50.66447432 101.64800856 -53.81203466 102.33580973 -57.8125 102.625 C-59.27623047 102.73714844 -59.27623047 102.73714844 -60.76953125 102.8515625 C-61.50558594 102.90054688 -62.24164063 102.94953125 -63 103 C-60.81618931 114.75898062 -57.11984562 123.39823637 -50 133 C-49.4946875 133.71929688 -48.989375 134.43859375 -48.46875 135.1796875 C-40.64757416 145.41087683 -25.23051309 152.77435167 -12.765625 154.7734375 C-12.18296875 154.84820313 -11.6003125 154.92296875 -11 155 C-10.95101562 154.09636719 -10.90203125 153.19273437 -10.8515625 152.26171875 C-10.77679688 151.08222656 -10.70203125 149.90273438 -10.625 148.6875 C-10.55539062 147.51574219 -10.48578125 146.34398437 -10.4140625 145.13671875 C-10 142 -10 142 -8 139 C-1.24752475 137.58415842 -1.24752475 137.58415842 2.4375 138.8125 C4 140 4 140 5 142 C5.22950319 144.204364 5.41075933 146.41392173 5.5625 148.625 C5.64628906 149.81351563 5.73007812 151.00203125 5.81640625 152.2265625 C5.87699219 153.14179687 5.93757813 154.05703125 6 155 C21.08031331 152.30407807 37.02710001 144.37572364 46.3125 131.890625 C52.23109349 122.62106314 56.28935811 114.01494926 57 103 C55.62714844 102.81824219 55.62714844 102.81824219 54.2265625 102.6328125 C53.03804687 102.46523438 51.84953125 102.29765625 50.625 102.125 C49.44164062 101.96257812 48.25828125 101.80015625 47.0390625 101.6328125 C44 101 44 101 42 99 C41.76953125 96.94140625 41.76953125 96.94140625 41.8125 94.5625 C41.81894531 93.78003906 41.82539062 92.99757813 41.83203125 92.19140625 C42 90 42 90 43 87 C47.62 86.67 52.24 86.34 57 86 C56.3250485 72.50096995 49.72913194 59.13180832 39.9375 49.8125 C30.99532789 42.40631324 17.92466025 34 6 34 C5.96261719 34.90363281 5.92523438 35.80726563 5.88671875 36.73828125 C5.82097656 37.91777344 5.75523437 39.09726562 5.6875 40.3125 C5.62949219 41.48425781 5.57148438 42.65601563 5.51171875 43.86328125 C5 47 5 47 3.6015625 48.87109375 C0.36322717 51.15372524 -2.47393582 51.06948017 -6.3125 50.5625 C-7.199375 50.376875 -8.08625 50.19125 -9 50 C-10.10514766 46.68455701 -10.32107631 43.79589889 -10.5625 40.3125 C-10.64628906 39.13300781 -10.73007812 37.95351563 -10.81640625 36.73828125 C-10.87699219 35.83464844 -10.93757813 34.93101562 -11 34 C-22.9273275 34 -38.65161976 43.72714117 -47.07421875 51.80078125 Z " fill="#050505" transform="translate(500,388)"/>
<path d="M0 0 C4.37044403 1.14182772 7.0978087 4.41311913 10.16796875 7.56640625 C11.06773437 8.45457031 11.9675 9.34273438 12.89453125 10.2578125 C15.33741436 12.67661085 17.75944602 15.11346405 20.16796875 17.56640625 C24.13017082 14.30859566 27.68610554 11.00858701 31.13916016 7.20629883 C37.98428864 -0.18048765 37.98428864 -0.18048765 43.10546875 -0.43359375 C46.18271058 0.00837994 47.2387292 0.62031897 49.79296875 2.56640625 C51.59338942 6.49459679 51.60320608 9.55623746 50.16796875 13.56640625 C47.803419 16.55408612 45.01442475 18.93200475 42.10546875 21.37890625 C40.60838693 22.66993263 39.11716425 23.96779477 37.6328125 25.2734375 C36.63689087 26.11612183 36.63689087 26.11612183 35.62084961 26.97583008 C33.83075615 28.57653608 33.83075615 28.57653608 34.16796875 31.56640625 C35.91852551 33.72225246 35.91852551 33.72225246 38.23046875 35.87890625 C39.04644531 36.678125 39.86242187 37.47734375 40.703125 38.30078125 C42.7902815 40.21924523 44.91142611 41.92125236 47.16796875 43.62890625 C49.71113513 45.76801816 50.75773014 47.35216651 51.41796875 50.62890625 C51.16796875 54.56640625 51.16796875 54.56640625 49.23046875 57.56640625 C46.18730671 59.55377738 44.03554692 60.5333141 40.35546875 60.32421875 C35.55292812 58.66048146 32.4389826 54.28011371 29.16796875 50.56640625 C28.4203125 49.8496875 27.67265625 49.13296875 26.90234375 48.39453125 C25.16796875 46.56640625 25.16796875 46.56640625 25.16796875 44.56640625 C23.51796875 43.90640625 21.86796875 43.24640625 20.16796875 42.56640625 C19.76481445 42.97479736 19.36166016 43.38318848 18.94628906 43.80395508 C17.10618492 45.66493346 15.26212487 47.52194349 13.41796875 49.37890625 C12.78375 50.02150391 12.14953125 50.66410156 11.49609375 51.32617188 C10.87734375 51.94814453 10.25859375 52.57011719 9.62109375 53.2109375 C9.05551758 53.78175049 8.48994141 54.35256348 7.90722656 54.94067383 C4.77502865 57.86842592 3.01784181 59.46017212 -1.33203125 60.00390625 C-4.83203125 59.56640625 -4.83203125 59.56640625 -7.20703125 57.94140625 C-9.24726225 54.95953018 -9.83203125 53.1918955 -9.83203125 49.56640625 C-6.76600791 43.14235735 -0.87221831 38.46120329 4.16796875 33.56640625 C5.50355623 32.23533089 6.83771826 30.90281531 8.16796875 29.56640625 C7.72404785 29.15801514 7.28012695 28.74962402 6.82275391 28.32885742 C4.80985447 26.47373432 2.80138066 24.61388626 0.79296875 22.75390625 C0.09429687 22.11130859 -0.604375 21.46871094 -1.32421875 20.80664062 C-1.99453125 20.18466797 -2.66484375 19.56269531 -3.35546875 18.921875 C-3.97341309 18.35106201 -4.59135742 17.78024902 -5.22802734 17.19213867 C-8.09765088 14.283642 -8.81657246 12.76118703 -9.14453125 8.62890625 C-9.0544875 6.05555066 -8.80121244 4.48935923 -7.83203125 2.06640625 C-5.29298055 0.16211822 -3.14970304 -0.17785208 0 0 Z " fill="#050505" transform="translate(476.83203125,452.43359375)"/>
<path d="M0 0 C-1.89796659 6.7205231 -4.15197074 13.17125366 -6.8125 19.625 C-9.32311481 25.80763382 -11.79459573 31.99704801 -14.125 38.25 C-14.36597412 38.88969727 -14.60694824 39.52939453 -14.85522461 40.18847656 C-16.09917711 43.50736367 -17.29033811 46.83635299 -18.421875 50.1953125 C-21.38642874 58.81974179 -24.79876429 65.14232718 -31 72 C-31.66 72.99 -32.32 73.98 -33 75 C-34.65 74.67 -36.3 74.34 -38 74 C-38.14622803 73.31897217 -38.29245605 72.63794434 -38.44311523 71.9362793 C-39.10617142 68.85297596 -39.77180535 65.77023471 -40.4375 62.6875 C-40.66759766 61.61564453 -40.89769531 60.54378906 -41.13476562 59.43945312 C-41.35712891 58.41142578 -41.57949219 57.38339844 -41.80859375 56.32421875 C-42.11494751 54.9024231 -42.11494751 54.9024231 -42.42749023 53.4519043 C-42.98713698 50.88486719 -42.98713698 50.88486719 -44 48 C-44.73637695 47.91959473 -45.47275391 47.83918945 -46.23144531 47.75634766 C-49.5718901 47.38711842 -52.91090016 47.00619252 -56.25 46.625 C-57.40886719 46.49867188 -58.56773437 46.37234375 -59.76171875 46.2421875 C-61.43427734 46.04882812 -61.43427734 46.04882812 -63.140625 45.8515625 C-64.16704102 45.73635254 -65.19345703 45.62114258 -66.25097656 45.50244141 C-68.86481141 45.02470854 -70.7152829 44.32398878 -73 43 C-68.82342694 32.51110629 -54.27526318 26.31567566 -44.8671875 21.1953125 C-43.90522461 20.67138916 -42.94326172 20.14746582 -41.95214844 19.60766602 C-40.97793945 19.07713623 -40.00373047 18.54660645 -39 18 C-36.28926505 16.52029796 -33.5789308 15.03986415 -30.86865234 13.55932617 C-28.99229574 12.53566161 -27.11497038 11.51377131 -25.23681641 10.4934082 C-21.08308587 8.23609918 -16.93443616 5.97548952 -12.828125 3.6328125 C-11.68859375 2.99085938 -10.5490625 2.34890625 -9.375 1.6875 C-7.93253906 0.85798828 -7.93253906 0.85798828 -6.4609375 0.01171875 C-3.65719516 -1.14093088 -2.80069439 -0.85443031 0 0 Z " fill="#040404" transform="translate(436,559)"/>
<path d="M0 0 C0 0.33 0 0.66 0 1 C-1.98 1 -3.96 1 -6 1 C-5.96519531 1.89203125 -5.93039062 2.7840625 -5.89453125 3.703125 C-5.86746094 4.87359375 -5.84039062 6.0440625 -5.8125 7.25 C-5.77769531 8.41015625 -5.74289062 9.5703125 -5.70703125 10.765625 C-6.02407865 14.26582831 -6.46783969 15.60595753 -9 18 C-12.6875 18.75 -12.6875 18.75 -16 19 C-16 18.34 -16 17.68 -16 17 C-14.02 16.67 -12.04 16.34 -10 16 C-9.95101563 14.85660156 -9.90203125 13.71320312 -9.8515625 12.53515625 C-9.77654811 11.04424527 -9.70099972 9.55336108 -9.625 8.0625 C-9.57859375 6.93038086 -9.57859375 6.93038086 -9.53125 5.77539062 C-9.4273685 3.84492605 -9.22104386 1.92057919 -9 0 C-5.93109813 -1.53445094 -3.29905734 -0.54984289 0 0 Z " fill="#0F0F0F" transform="translate(512,558)"/>
<path d="M0 0 C0.66 0 1.32 0 2 0 C2.07347656 1.46373047 2.07347656 1.46373047 2.1484375 2.95703125 C2.22320312 4.22933594 2.29796875 5.50164063 2.375 6.8125 C2.44460938 8.07707031 2.51421875 9.34164062 2.5859375 10.64453125 C2.76102939 14.12755234 2.76102939 14.12755234 5 17 C3.68 17 2.36 17 1 17 C-1.32613583 13.51079626 -1.24247293 12.05047454 -1.1875 7.9375 C-1.18105469 6.87402344 -1.17460937 5.81054688 -1.16796875 4.71484375 C-1 2 -1 2 0 0 Z " fill="#1B1B1B" transform="translate(490,558)"/>
<path d="M0 0 C-0.33 0.99 -0.66 1.98 -1 3 C-1.66 3 -2.32 3 -3 3 C-3 3.66 -3 4.32 -3 5 C-4.96875 6.5078125 -4.96875 6.5078125 -7.5 8.125 C-8.3353125 8.66382813 -9.170625 9.20265625 -10.03125 9.7578125 C-10.6809375 10.16773438 -11.330625 10.57765625 -12 11 C-12.66 10.67 -13.32 10.34 -14 10 C-4.57142857 0 -4.57142857 0 0 0 Z " fill="#070707" transform="translate(434,382)"/>
<path d="M0 0 C0.99 0 1.98 0 3 0 C1.49087042 4.98012761 -1.55661849 8.24259942 -5 12 C-5.58203125 10.140625 -5.58203125 10.140625 -6 8 C-4.6875 5.75 -4.6875 5.75 -3 4 C-2.34 4 -1.68 4 -1 4 C-0.67 2.68 -0.34 1.36 0 0 Z " fill="#0F0F0F" transform="translate(410,619)"/>
<path d="M0 0 C0 0.66 0 1.32 0 2 C-0.66 2 -1.32 2 -2 2 C-2.33 2.99 -2.66 3.98 -3 5 C-2.34 5.33 -1.68 5.66 -1 6 C-1 6.66 -1 7.32 -1 8 C-4 9 -4 9 -6.1875 8.0625 C-6.785625 7.711875 -7.38375 7.36125 -8 7 C-6.47663111 3.31852519 -4.31953005 0 0 0 Z " fill="#101010" transform="translate(371,595)"/>
<path d="M0 0 C1.22589844 0.01353516 1.22589844 0.01353516 2.4765625 0.02734375 C3.41628906 0.04474609 3.41628906 0.04474609 4.375 0.0625 C4.375 1.0525 4.375 2.0425 4.375 3.0625 C1.075 3.0625 -2.225 3.0625 -5.625 3.0625 C-5.955 3.7225 -6.285 4.3825 -6.625 5.0625 C-6.625 3.7425 -6.625 2.4225 -6.625 1.0625 C-4.21954362 -0.14022819 -2.67503047 -0.03821472 0 0 Z " fill="#6A6A6A" transform="translate(580.625,487.9375)"/>
<path d="M0 0 C0.99 0.33 1.98 0.66 3 1 C0.525 6.94 0.525 6.94 -2 13 C-2.66 12.67 -3.32 12.34 -4 12 C-3.52309796 10.37433394 -3.04340334 8.74948689 -2.5625 7.125 C-2.29566406 6.22007812 -2.02882813 5.31515625 -1.75390625 4.3828125 C-1 2 -1 2 0 0 Z " fill="#111110" transform="translate(429,570)"/>
<path d="M0 0 C0.99 0.33 1.98 0.66 3 1 C4.23867161 3.61497339 5.08503983 6.25511949 6 9 C4.35 8.67 2.7 8.34 1 8 C0.67 5.36 0.34 2.72 0 0 Z " fill="#262626" transform="translate(397,625)"/>
<path d="M0 0 C3.9492568 0.55105909 7.34920174 1.38935371 11 3 C10.67 3.99 10.34 4.98 10 6 C6.51329166 4.8905928 3.22515763 3.73662334 0 2 C0 1.34 0 0.68 0 0 Z " fill="#141414" transform="translate(442,587)"/>
<path d="M0 0 C0 0.99 0 1.98 0 3 C-6.75 5.125 -6.75 5.125 -9 4 C-9 3.34 -9 2.68 -9 2 C-2.25 0 -2.25 0 0 0 Z " fill="#191919" transform="translate(542,617)"/>
<path d="M0 0 C2.95012857 1.36970255 5.5652222 2.82609125 8 5 C8 5.99 8 6.98 8 8 C4.20645982 6.50968064 2.3521464 4.27620391 0 1 C0 0.67 0 0.34 0 0 Z " fill="#0D0D0D" transform="translate(515,490)"/>
<path d="M0 0 C7.75 0.75 7.75 0.75 10 3 C6.7 3 3.4 3 0 3 C0 2.01 0 1.02 0 0 Z " fill="#323232" transform="translate(410,488)"/>
<path d="M0 0 C0 0.66 0 1.32 0 2 C-2.97 2 -5.94 2 -9 2 C-9 1.34 -9 0.68 -9 0 C-5.62182575 -0.84454356 -3.32534757 -1.10844919 0 0 Z " fill="#212121" transform="translate(532,621)"/>
<path d="M0 0 C0.66 0.33 1.32 0.66 2 1 C-0.31 3.97 -2.62 6.94 -5 10 C-5.66 9.67 -6.32 9.34 -7 9 C-2.85714286 2.57142857 -2.85714286 2.57142857 0 0 Z " fill="#131313" transform="translate(474,493)"/>
<path d="M0 0 C-0.33 0.66 -0.66 1.32 -1 2 C-3.3140622 2.73075648 -5.64828869 3.40138258 -8 4 C-8 3.01 -8 2.02 -8 1 C-3.375 -1.125 -3.375 -1.125 0 0 Z " fill="#1A1A1A" transform="translate(462,370)"/>
<path d="M0 0 C3.34373475 0.55728913 6.03312999 1.35173889 9 3 C9 3.66 9 4.32 9 5 C6.03 4.01 3.06 3.02 0 2 C0 1.34 0 0.68 0 0 Z " fill="#1F1F1F" transform="translate(434,610)"/>
<path d="M0 0 C0.99 0.33 1.98 0.66 3 1 C2.01 2.485 2.01 2.485 1 4 C-2.625 4.6875 -2.625 4.6875 -6 5 C-6 4.34 -6 3.68 -6 3 C-4.02 2.67 -2.04 2.34 0 2 C0 1.34 0 0.68 0 0 Z " fill="#1A1A1A" transform="translate(502,572)"/>
<path d="M0 0 C0.33 0.99 0.66 1.98 1 3 C-1.31 4.98 -3.62 6.96 -6 9 C-4.68775452 5.06326356 -3.08089673 2.77280706 0 0 Z " fill="#0D0E0D" transform="translate(456,434)"/>
<path d="M0 0 C2.31 0.33 4.62 0.66 7 1 C7 1.66 7 2.32 7 3 C3.37673261 4.2077558 2.35853631 3.54311128 -1 2 C-0.67 1.34 -0.34 0.68 0 0 Z " fill="#1E1E1B" transform="translate(456,618)"/>
<path d="M0 0 C2.31 0 4.62 0 7 0 C7.33 0.66 7.66 1.32 8 2 C3.545 2.495 3.545 2.495 -1 3 C-0.67 2.01 -0.34 1.02 0 0 Z " fill="#282828" transform="translate(485,623)"/>
<path d="M0 0 C-0.33 0.99 -0.66 1.98 -1 3 C-1.66 3 -2.32 3 -3 3 C-3 3.66 -3 4.32 -3 5 C-4.32 5.33 -5.64 5.66 -7 6 C-5.52522876 2.59668175 -4.14385429 0 0 0 Z " fill="#0D0D0D" transform="translate(434,382)"/>
<path d="M0 0 C0.66 0.66 1.32 1.32 2 2 C0.35 3.65 -1.3 5.3 -3 7 C-2.25 2.25 -2.25 2.25 0 0 Z " fill="#171717" transform="translate(407,624)"/>
<path d="M0 0 C-2.91765 1.9451 -4.62537285 2.45276317 -8 3 C-8.33 2.34 -8.66 1.68 -9 1 C-3.375 -1.125 -3.375 -1.125 0 0 Z " fill="#282828" transform="translate(552,615)"/>
<path d="M0 0 C0.66 0.33 1.32 0.66 2 1 C1.25 5.75 1.25 5.75 -1 8 C-2.2077558 4.37673261 -1.54311128 3.35853631 0 0 Z " fill="#191918" transform="translate(424,583)"/>
</svg>
